<svg width="1024" height="1024" viewBox="0 0 1024 1024" fill="none" xmlns="http://www.w3.org/2000/svg">
<path d="M799.534 423.634L888.76 512L799.534 600.366L781 618.721L780.721 644.804L779.388 769.449L648.97 770.762L623.985 771.013L605.871 788.223L512 877.41L418.129 788.223L400.015 771.013L375.03 770.762L244.612 769.449L243.279 644.804L242.999 618.721L224.466 600.366L135.24 512L224.466 423.634L242.999 405.279L243.279 379.196L244.612 254.551L375.03 253.238L400.015 252.987L418.129 235.777L512 146.59L605.871 235.777L623.985 252.987L648.97 253.238L779.388 254.551L780.721 379.196L781 405.279L799.534 423.634Z" stroke="black" stroke-width="127"/>
</svg>
